{"title":"Btooom Complete Series (Eng Dub) 1080p x265 Download","magnet":"magnet:?xt=urn:btih:dd8c3980404899f384213d8916338560708e7214&dn=Btooom+Complete+Series+%28Eng+Dub%29+1080p+x265+Download&tr=udp%3A%2F%2Ftracker.leechers-paradise.org%3A6969&tr=udp%3A%2F%2Fzer0day.ch%3A1337&tr=udp%3A%2F%2Fopen.demonii.com%3A1337&tr=udp%3A%2F%2Ftracker.coppersurfer.tk%3A6969&tr=udp%3A%2F%2Fexodus.desync.com%3A6969","uploader":"Browse digimaza","categoryP":"video","categoryS":"other","size":"2716686783","seeders":"4","leechers":"6","description":"Btooom Complete Series (Eng Dub) 1080p x265 Download <a href=\"\nhttp://i.imgur.com/zBh30tR.jpg\" rel=\"nofollow\" target=\"_NEW\">\nhttp://i.imgur.com/zBh30tR.jpg</a>\r\n\r\nBtooom!, stylized as BTOOOM!, is a Japanese manga series written by Jun&apos;ya Inoue and serialized in Weekly Comic Bunch and later in Monthly Comic Bunch. An anime adaptation by Madhouse aired in Japan on Tokyo MX and was streamed with English subtitles by Crunchyroll from October 4 to December 20, 2012. It has been licensed in North America by Sentai Filmworks.\r\n\r\n..::File Specs::.. \r\n\r\nGeneral \r\n\r\nFormat : Matroska \r\nFormat version : Version 4 / Version 2 \r\nFile size : 263 MiB \r\nDuration : 24 min 23 s \r\nOverall bit rate : 1 508 kb/s \r\n\r\nVideo \r\nID : 1 \r\nFormat : HEVC \r\nFormat/Info : High Efficiency Video Coding \r\nFormat profile : Main <a class=\"__cf_email__\" href=\"/cdn-cgi/l/email-protection\" data-cfemail=\"645554242851\">[email&#xA0;protected]</a><script data-cfhash=\"f9e31\" type=\"text/javascript\">/* <![CDATA[ */!function(t,e,r,n,c,a,p){try{t=document.currentScript||function(){for(t=document.getElementsByTagName('script'),e=t.length;e--;)if(t[e].getAttribute('data-cfhash'))return t[e]}();if(t&&(c=t.previousSibling)){p=t.parentNode;if(a=c.getAttribute('data-cfemail')){for(e='',r='0x'+a.substr(0,2)|0,n=2;a.length-n;n+=2)e+='%'+('0'+('0x'+a.substr(n,2)^r).toString(16)).slice(-2);p.replaceChild(document.createTextNode(decodeURIComponent(e)),c)}p.removeChild(t)}}catch(u){}}()/* ]]> */</script>@Main \r\nCodec ID : V_MPEGH/ISO/HEVC \r\nDuration : 24 min 22 s \r\nBit rate : 1 395 kb/s \r\nWidth : 1 920 pixels \r\nHeight : 1 080 pixels \r\nDisplay aspect ratio : 16:9 \r\nFrame rate mode : Constant \r\nFrame rate : 23.976 (24000/1001) FPS \r\nColor space : YUV \r\nChroma subsampling : 4:2:0 \r\nBit depth : 10 bits \r\nBits/(Pixel*Frame) : 0.028 \r\nStream size : 243 MiB (93%) \r\n\r\nAudio \r\nID : 2 \r\nFormat : AAC \r\nFormat/Info : Advanced Audio Codec \r\nFormat profile : LC \r\nCodec ID : A_AAC \r\nDuration : 24 min 23 s \r\nBit rate : 98.8 kb/s \r\nChannel(s) : 2 channels \r\nChannel positions : Front: L R \r\nSampling rate : 48.0 kHz \r\nFrame rate : 46.875 FPS (1024 spf) \r\nCompression mode : Lossy \r\nDelay relative to video : 9 ms \r\nStream size : 17.2 MiB (7%) \r\nLanguage : English \r\n\r\nText #1 \r\nID : 3 \r\nFormat : VobSub \r\nMuxing mode : zlib \r\nCodec ID : S_VOBSUB \r\nCodec ID/Info : Picture based subtitle format used on DVDs \r\nDuration : 23 min 53 s \r\nBit rate : 548 b/s \r\nCount of elements : 28 \r\nStream size : 96.0 KiB (0%) \r\nTitle : English Signs/Song Retail \r\nLanguage : English \r\n\r\n..::ScreenShots::.. \r\n <a href=\"\nhttp://i.imgur.com/X1okHf0.jpg\" rel=\"nofollow\" target=\"_NEW\">\nhttp://i.imgur.com/X1okHf0.jpg</a>  <a href=\"\nhttp://i.imgur.com/6dnbAft.jpg\" rel=\"nofollow\" target=\"_NEW\">\nhttp://i.imgur.com/6dnbAft.jpg</a>  <a href=\"\nhttp://i.imgur.com/v5GPImm.jpg\" rel=\"nofollow\" target=\"_NEW\">\nhttp://i.imgur.com/v5GPImm.jpg</a> \r\n\r\n================================================================ \r\nSeed Seed Seed Seed Seed Seed Seed Seed Seed Seed Seed Seed Seed \r\nIf You Like Our Work For You, Consider a BTC Donation. \r\n1QDS1uDYov85ZdJeWyxYH4ttXoYvPEyaxe \r\n================================================================","last_updated":"2017-04-25T12:38:10.886Z","parsed":{"xt":"urn:btih:dd8c3980404899f384213d8916338560708e7214","dn":"Btooom Complete Series (Eng Dub) 1080p x265 Download","tr":["udp://exodus.desync.com:6969","udp://open.demonii.com:1337","udp://tracker.coppersurfer.tk:6969","udp://tracker.leechers-paradise.org:6969","udp://zer0day.ch:1337"],"infoHash":"dd8c3980404899f384213d8916338560708e7214","infoHashBuffer":{"type":"Buffer","data":[221,140,57,128,64,72,153,243,132,33,61,137,22,51,133,96,112,142,114,20]},"name":"Btooom Complete Series (Eng Dub) 1080p x265 Download","announce":["udp://exodus.desync.com:6969","udp://open.demonii.com:1337","udp://tracker.coppersurfer.tk:6969","udp://tracker.leechers-paradise.org:6969","udp://zer0day.ch:1337"],"urlList":[]}}